<?xml version="1.0" encoding="UTF-8" standalone="no"?>
<svg
   width="18390"
   height="5000"
   viewBox="0 0 18390 5000"
   fill="none"
   version="1.1"
   id="svg155"
   sodipodi:docname="axiom_main.svg"
   inkscape:version="1.2.2 (b0a8486541, 2022-12-01)"
   inkscape:export-filename="axiom_main.svg"
   inkscape:export-xdpi="96"
   inkscape:export-ydpi="96"
   xmlns:inkscape="http://www.inkscape.org/namespaces/inkscape"
   xmlns:sodipodi="http://sodipodi.sourceforge.net/DTD/sodipodi-0.dtd"
   xmlns="http://www.w3.org/2000/svg"
   xmlns:svg="http://www.w3.org/2000/svg">
  <defs
     id="defs159" />
  <sodipodi:namedview
     id="namedview157"
     pagecolor="#ffffff"
     bordercolor="#000000"
     borderopacity="0.25"
     inkscape:showpageshadow="2"
     inkscape:pageopacity="0.0"
     inkscape:pagecheckerboard="0"
     inkscape:deskcolor="#d1d1d1"
     showgrid="false"
     inkscape:zoom="0.15258292"
     inkscape:cx="1418.9006"
     inkscape:cy="2785.3707"
     inkscape:window-width="1920"
     inkscape:window-height="1021"
     inkscape:window-x="0"
     inkscape:window-y="0"
     inkscape:window-maximized="1"
     inkscape:current-layer="svg155" />
  <path
     d="m 12068.9,1160.01 c 0,157.4 -125.8,285 -280.9,285 -155.1,0 -280.9,-127.6 -280.9,-285 0,-157.41 125.8,-285.01 280.9,-285.01 155.1,0 280.9,127.6 280.9,285.01 z"
     fill="#e3e4e8"
     id="path123"
     inkscape:label="i" />
  <path
     fill-rule="evenodd"
     clip-rule="evenodd"
     d="M 8784.37,4079.03 7769.57,953.147 H 6908.8 L 5889.47,4079.03 h 561.77 l 267.29,-859.62 h 1232.25 l 271.82,859.62 z M 7796.75,2722.95 h -924.19 l 299,-946.96 158.56,-537.84 h 9.07 l 158.56,537.84 z"
     fill="#e3e4e8"
     id="path125"
     inkscape:label="A" />
  <path
     d="m 9744.44,2929.81 -697.67,1149.22 h 602.54 l 221.98,-395.33 262.81,-491.87 h 9 l 262.8,491.87 222,395.33 h 611.6 l -697.7,-1149.22 697.7,-1149.22 h -602.6 l -217.4,390.73 -262.8,491.87 h -9.1 L 9880.35,2171.32 9662.9,1780.59 h -616.13 z"
     fill="#e3e4e8"
     id="path127"
     inkscape:label="x" />
  <path
     d="m 12054,1780.59 h -534.6 v 2298.44 h 534.6 z"
     fill="#e3e4e8"
     id="path129"
     inkscape:label="i" />
  <path
     fill-rule="evenodd"
     clip-rule="evenodd"
     d="m 12365.9,2929.81 c 0,740.1 466.6,1195.19 1123.5,1195.19 656.9,0 1123.5,-455.09 1123.5,-1195.19 0,-740.1 -466.6,-1195.19 -1123.5,-1195.19 -656.9,0 -1123.5,455.09 -1123.5,1195.19 z m 1123.5,753.89 c -335.3,0 -570.8,-239.04 -570.8,-694.13 v -119.52 c 0,-455.09 235.5,-694.13 570.8,-694.13 335.2,0 575.3,239.04 575.3,694.13 v 119.52 c 0,455.09 -240.1,694.13 -575.3,694.13 z"
     fill="#e3e4e8"
     id="path131"
     inkscape:label="o" />
  <path
     d="m 15449.3,1780.59 h -521 v 2298.44 h 534.6 V 2782.71 c 0,-418.32 203.8,-593 493.8,-593 280.9,0 434.9,165.49 434.9,478.08 v 1411.24 h 534.6 V 2782.71 c 0,-418.32 208.4,-593 498.3,-593 276.4,0 430.4,165.49 430.4,478.08 v 1411.24 h 534.6 V 2612.62 c 0,-583.8 -321.7,-878 -752.1,-878 -380.5,0 -620.6,229.84 -761.1,510.25 -108.7,-340.17 -376,-510.25 -706.7,-510.25 -357.9,0 -575.3,206.86 -720.3,464.28 z"
     fill="#e3e4e8"
     id="path133"
     style="display:inline"
     inkscape:label="m" />
  <path
     d="m 2297.21,2685.56 -11.68,11.25 c -76.51,73.72 -133.99,167.25 -164.1,272.47 l -4.25,14.82 -1018.71,588.21 V 2207.37 l 1198.74,-692.09 z"
     fill="#ff002b"
     id="path147"
     style="display:inline"
     inkscape:label="red"
     sodipodi:nodetypes="cccccccc" />
  <path
     d="m 3310.41,3006.33 -3.89,-15.77 c -28.16,-113.96 -88.14,-215.27 -169.84,-293.99 L 3125,2685.32 V 1515 l 1198.74,692.08 v 1384.34 z"
     fill="#00aaff"
     id="path149"
     style="display:inline"
     inkscape:label="blue" />
  <path
     d="m 2504.16,3715.72 16.18,5.29 c 60.02,19.59 124.05,30.18 190.41,30.18 58.82,0 115.82,-8.32 169.82,-23.86 l 15.59,-4.49 1013.3,585.08 L 2710.77,5000 1495.29,4298.24 Z"
     fill="#00ff56"
     id="path151"
     style="display:inline"
     inkscape:label="green" />
  <path
     id="path135"
     style="display:inline;fill:#e6e6e6"
     d="m 2710.7598,0 -616.75,1068.25 h 483.2207 v 1764.1484 l 267.0586,1.9102 V 1068.25 h 483.2304 z m 189.1797,3393.3906 1497.6503,864.7403 -241.6191,418.4785 1233.5,0.041 -616.7109,-1068.2695 -241.6289,418.4687 -1497.6504,-864.7305 z M 2385.6152,3145.0117 858.34375,4026.8496 616.71875,3608.3809 0,4676.6504 1233.5098,4676.6094 991.88281,4258.1309 2507.75,3382.8691 Z"
     sodipodi:nodetypes="cccccccccccccccccccccccc"
     inkscape:label="arrows" />
  <path
     d="m 3034,3129 c 0,179.49 -145.51,325 -325,325 -179.49,0 -325,-145.51 -325,-325 0,-179.49 145.51,-325 325,-325 179.49,0 325,145.51 325,325 z"
     fill="#ffffff"
     id="path1118"
     style="display:inline"
     inkscape:label="circle" />
</svg>
